<?xml version="1.0" encoding="utf-8"?>
<!-- Generator: Adobe Illustrator 22.1.0, SVG Export Plug-In . SVG Version: 6.00 Build 0)  -->
<svg version="1.1" id="Layer_1" xmlns="http://www.w3.org/2000/svg" xmlns:xlink="http://www.w3.org/1999/xlink" x="0px" y="0px"
	 viewBox="0 0 100 100" style="enable-background:new 0 0 100 100;" xml:space="preserve">
<style type="text/css">
	.st0{fill:#0072BC;}
	.st1{fill:#FFFFFF;}
</style>
<circle class="st0" cx="50" cy="50" r="48"/>
<path class="st1" d="M65.3,14.1H34.4c-4.2,0-7.6,3.4-7.6,7.6v55.2c0,4.2,3.4,7.6,7.6,7.6h30.9c4.2,0,7.6-3.4,7.6-7.6V21.7
	C72.8,17.5,69.4,14.1,65.3,14.1L65.3,14.1z M34.4,18.2h30.9c1.9,0,3.5,1.6,3.5,3.5v41H30.9v-41C30.9,19.8,32.5,18.2,34.4,18.2
	L34.4,18.2z M65.3,80.3H34.4c-1.9,0-3.5-1.6-3.5-3.5v-10h37.8v10.1C68.7,78.7,67.2,80.3,65.3,80.3L65.3,80.3z M49.8,68.1
	c-3,0-5.4,2.4-5.4,5.4s2.4,5.4,5.4,5.4s5.4-2.4,5.4-5.4C55.2,70.6,52.8,68.1,49.8,68.1L49.8,68.1z M49.8,74.8
	c-0.7,0-1.2-0.6-1.2-1.2c0-0.7,0.6-1.2,1.2-1.2c0.7,0,1.2,0.6,1.2,1.2C51.1,74.2,50.5,74.8,49.8,74.8L49.8,74.8z"/>
</svg>
