<?xml version="1.0" encoding="utf-8"?>
<!-- Generator: Adobe Illustrator 22.1.0, SVG Export Plug-In . SVG Version: 6.00 Build 0)  -->
<svg version="1.1" id="Layer_1" xmlns="http://www.w3.org/2000/svg" xmlns:xlink="http://www.w3.org/1999/xlink" x="0px" y="0px"
	 viewBox="0 0 100 100" style="enable-background:new 0 0 100 100;" xml:space="preserve">
<style type="text/css">
	.st0{fill:#0072BC;}
	.st1{fill:#FFFFFF;}
</style>
<g>
	<circle class="st0" cx="49.5" cy="50.5" r="47.5"/>
	<g>
		<path class="st1" d="M77,24.2H21.6c-3.3,0-5.9,2.7-5.9,5.9v39.4c0,3.2,2.6,5.9,5.9,5.9H77c3.2,0,5.9-2.6,5.9-5.9V30.2
			C82.9,26.9,80.3,24.2,77,24.2L77,24.2z M76.2,28.2L49.4,55l-27-26.8H76.2z M19.6,68.8V30.9l19,18.8L19.6,68.8z M22.4,71.5l19-19
			l6.7,6.6c0.8,0.8,2,0.8,2.8,0l6.5-6.5l18.9,18.9H22.4z M79,68.8L60.1,49.9L79,31V68.8z M79,68.8"/>
	</g>
</g>
</svg>
