<?xml version="1.0" encoding="utf-8"?>
<!-- Generator: Adobe Illustrator 22.1.0, SVG Export Plug-In . SVG Version: 6.00 Build 0)  -->
<svg version="1.1" id="Layer_1" xmlns="http://www.w3.org/2000/svg" xmlns:xlink="http://www.w3.org/1999/xlink" x="0px" y="0px"
	 viewBox="0 0 100 100" style="enable-background:new 0 0 100 100;" xml:space="preserve">
<style type="text/css">
	.st0{fill:#0072BC;}
	.st1{fill:#FFFFFF;}
</style>
<circle class="st0" cx="50" cy="50" r="48"/>
<g>
	<path class="st1" d="M70.1,27.2C64.8,21.9,57.7,19,50.2,19c-7.5,0-14.6,2.9-19.9,8.2C24.9,32.6,22,39.6,22,47.2
		c0,7.5,2.9,14.6,8.2,19.9l15,15c1.3,1.3,3.1,2,5,2c1.9,0,3.6-0.7,5-2l15-15c5.3-5.3,8.2-12.4,8.2-19.9
		C78.3,39.6,75.4,32.6,70.1,27.2L70.1,27.2z M67.4,64.4l-15,15c-0.6,0.6-1.4,0.9-2.3,0.9c-0.9,0-1.7-0.3-2.3-0.9l-15-15
		c-4.6-4.6-7.1-10.7-7.1-17.2s2.5-12.6,7.1-17.2c4.6-4.6,10.7-7.1,17.2-7.1c6.5,0,12.6,2.5,17.2,7.1C76.9,39.4,76.9,54.9,67.4,64.4
		L67.4,64.4z M67.4,64.4"/>
	<path class="st1" d="M50.2,37.1c-5.6,0-10.1,4.5-10.1,10.1c0,5.6,4.5,10.1,10.1,10.1c5.6,0,10.1-4.5,10.1-10.1
		C60.2,41.6,55.7,37.1,50.2,37.1L50.2,37.1z M50.2,53.4c-3.5,0-6.3-2.8-6.3-6.3c0-3.5,2.8-6.3,6.3-6.3c3.5,0,6.3,2.8,6.3,6.3
		C56.4,50.6,53.6,53.4,50.2,53.4L50.2,53.4z M50.2,53.4"/>
</g>
</svg>
