<?xml version="1.0" encoding="UTF-8"?>
<svg width="43px" height="43px" viewBox="0 0 43 43" version="1.1" xmlns="http://www.w3.org/2000/svg" xmlns:xlink="http://www.w3.org/1999/xlink">
    <!-- Generator: Sketch 61.1 (89650) - https://sketch.com -->
    <title>ICONOIN-03</title>
    <desc>Created with Sketch.</desc>
    <g id="Page-1" stroke="none" stroke-width="1" fill="none" fill-rule="evenodd">
        <g id="Que-hago" transform="translate(-1841.000000, -18.000000)" fill="#FFFFFF">
            <g id="ICONOIN-03" transform="translate(1841.000000, 18.000000)">
                <path d="M21.5,0 C9.60638298,0 0,9.60638298 0,21.5 C0,33.393617 9.60638298,43 21.5,43 C33.393617,43 43,33.393617 43,21.5 C43,9.60638298 33.393617,0 21.5,0 Z M14.8212766,33.5765957 L9.14893617,33.5765957 L9.14893617,15.05 L14.8212766,15.05 L14.8212766,33.5765957 Z M11.9851064,13.6319149 C10.2925532,13.6319149 9.14893617,12.3510638 9.14893617,10.9329787 C9.14893617,9.37765957 10.2925532,7.95957447 11.9851064,7.95957447 C13.6776596,7.95957447 14.8212766,9.24042553 14.8212766,10.7957447 C14.8212766,12.3510638 13.8606383,13.6319149 11.9851064,13.6319149 Z M34.7659574,33.5765957 L29.093617,33.5765957 L29.093617,23.7414894 C29.093617,21.4542553 28.2244681,19.7617021 26.2574468,19.7617021 C24.7021277,19.7617021 23.9702128,21.0425532 23.5585106,22.0489362 C23.4212766,22.4606383 23.4212766,22.9180851 23.4212766,23.4670213 L23.4212766,33.5765957 L17.7031915,33.5765957 L17.7031915,21.3170213 C17.7031915,19.1670213 17.5659574,17.337234 17.5659574,15.7819149 L22.6893617,15.7819149 L22.9638298,18.206383 L23.1010638,18.206383 C23.8329787,17.062766 25.5255319,15.3702128 28.4989362,15.3702128 C32.0670213,15.3702128 34.7659574,17.7946809 34.7659574,23.0553191 L34.7659574,33.5765957 L34.7659574,33.5765957 Z" id="Shape"></path>
            </g>
        </g>
    </g>
</svg>