<?xml version="1.0" encoding="UTF-8"?>
<svg width="43px" height="43px" viewBox="0 0 43 43" version="1.1" xmlns="http://www.w3.org/2000/svg" xmlns:xlink="http://www.w3.org/1999/xlink">
    <!-- Generator: Sketch 61.1 (89650) - https://sketch.com -->
    <title>ICONOINSTA-02</title>
    <desc>Created with Sketch.</desc>
    <g id="Page-1" stroke="none" stroke-width="1" fill="none" fill-rule="evenodd">
        <g id="Que-hago" transform="translate(-1775.000000, -18.000000)" fill="#FFFFFF">
            <g id="ICONOINSTA-02" transform="translate(1775.000000, 18.000000)">
                <path d="M28.3731343,19.707483 C28.5522388,20.3265306 28.641791,20.9455782 28.641791,21.6088435 C28.641791,25.5 25.4626866,28.6394558 21.5223881,28.6394558 C17.5820896,28.6394558 14.4029851,25.5 14.4029851,21.6088435 C14.4029851,20.9455782 14.4925373,20.2823129 14.6716418,19.707483 C14.761194,19.4421769 14.8059701,19.2210884 14.9402985,19 L11,19 L11,20.3265306 L11,29.5238095 C11,30.8945578 12.119403,32 13.5074627,32 L29.4925373,32 C30.880597,32 32,30.8945578 32,29.5238095 L32,20.3265306 L32,19 L28.1044776,19 C28.1940299,19.2210884 28.2835821,19.4421769 28.3731343,19.707483 Z" id="Path"></path>
                <path d="M21.4572817,26 C23.9712132,26 26,23.9902913 26,21.5 C26,20.7135922 25.7794797,19.9708738 25.4266472,19.315534 C25.3384391,19.184466 25.250231,19.0097087 25.1620228,18.8786408 C24.3240457,17.7427184 23.0009238,17 21.5013857,17 C20.0018476,17 18.6787258,17.7427184 17.8407486,18.8786408 C17.7525405,19.0097087 17.6643324,19.1407767 17.5761242,19.315534 C17.2232917,19.9708738 17.0027714,20.7135922 17.0027714,21.5 C16.9145633,23.9902913 18.9433501,26 21.4572817,26 Z" id="Path"></path>
                <polygon id="Path" points="31 16 31 12.5252525 31 12 30.4747475 12 27 12 27 16"></polygon>
                <path d="M21.5,0 C9.63946281,0 0,9.63946281 0,21.5 C0,33.3605372 9.63946281,43 21.5,43 C33.3605372,43 43,33.3605372 43,21.5 C43,9.63946281 33.3605372,0 21.5,0 Z M34.2933884,18.7458678 L34.2933884,20.7004132 L34.2933884,29.3626033 C34.2933884,32.1167355 32.0278926,34.3822314 29.2737603,34.3822314 L13.4152893,34.3822314 C10.661157,34.3822314 8.39566116,32.1167355 8.39566116,29.3626033 L8.39566116,20.7004132 L8.39566116,18.7458678 L8.39566116,13.4597107 C8.39566116,10.7055785 10.6167355,8.44008264 13.4152893,8.44008264 L29.2737603,8.44008264 C32.0278926,8.44008264 34.2933884,10.7055785 34.2933884,13.4597107 L34.2933884,18.7458678 L34.2933884,18.7458678 Z" id="Shape"></path>
            </g>
        </g>
    </g>
</svg>