<?xml version="1.0" encoding="UTF-8"?>
<svg width="43px" height="43px" viewBox="0 0 43 43" version="1.1" xmlns="http://www.w3.org/2000/svg" xmlns:xlink="http://www.w3.org/1999/xlink">
    <!-- Generator: Sketch 61.1 (89650) - https://sketch.com -->
    <title>ICONOSFACE-01</title>
    <desc>Created with Sketch.</desc>
    <g id="Page-1" stroke="none" stroke-width="1" fill="none" fill-rule="evenodd">
        <g id="Que-hago" transform="translate(-1709.000000, -18.000000)" fill="#FFFFFF">
            <g id="ICONOSFACE-01" transform="translate(1709.000000, 18.000000)">
                <path d="M21.5,0 C9.63020833,0 0,9.63020833 0,21.5 C0,33.3697917 9.63020833,43 21.5,43 C33.3697917,43 43,33.3697917 43,21.5 C43,9.63020833 33.3697917,0 21.5,0 Z M27.14375,19.5739583 L26.9645833,21.5895833 L23.2020833,21.5895833 C23.2020833,27.278125 23.2020833,34.3104167 23.2020833,34.3104167 L18.0958333,34.3104167 C18.0958333,34.3104167 18.0958333,27.3677083 18.0958333,21.5895833 L15.5427083,21.5895833 L15.5427083,19.5739583 L15.5427083,16.4833333 L18.0510417,16.4833333 L18.0510417,14.1989583 C18.0510417,12.09375 19.0364583,8.86875 23.4260417,8.86875 L27.3677083,8.86875 L27.3677083,13.2135417 C27.3677083,13.2135417 24.99375,13.2135417 24.5010417,13.2135417 C24.053125,13.2135417 23.38125,13.4375 23.38125,14.4229167 L23.38125,16.4385417 L27.4125,16.4385417 L27.14375,19.5739583 Z" id="Shape"></path>
            </g>
        </g>
    </g>
</svg>